<?xml version="1.0" encoding="utf-8"?>
<!-- Generator: Adobe Illustrator 23.0.0, SVG Export Plug-In . SVG Version: 6.00 Build 0)  -->
<svg version="1.1" id="Layer_1" xmlns="http://www.w3.org/2000/svg" xmlns:xlink="http://www.w3.org/1999/xlink" x="0px" y="0px"
	 viewBox="0 0 1923 1313" style="enable-background:new 0 0 1923 1313;" xml:space="preserve">
<style type="text/css">
	.st0{opacity:0.8;fill:#80FFFF;stroke:#000000;stroke-width:1.01;enable-background:new    ;}
	.st1{opacity:0.8;fill:#0080FF;stroke:#000000;stroke-width:1.01;enable-background:new    ;}
	.st2{fill-opacity:0;stroke:#000000;stroke-width:1.01;stroke-opacity:0.8;}
	.st3{fill:none;stroke:#000000;stroke-width:0.505;stroke-opacity:0.8;}
	.st4{font-family:'ArialMT';}
	.st5{font-size:17.3878px;}
</style>
<g transform="translate(626.1990159930028,14.195371580474102) scale(1.0867348625260587)">
	<rect x="-828.4" y="289" class="st0" width="320" height="160"/>
	<rect x="-824.4" y="293" class="st1" width="320" height="160"/>
	<rect x="-820.4" y="297" class="st0" width="320" height="160"/>
	<rect x="-476.4" y="289" class="st0" width="320" height="70"/>
	<rect x="-472.4" y="293" class="st1" width="320" height="70"/>
	<rect x="-468.4" y="297" class="st0" width="320" height="70"/>
	<rect x="-80.4" y="311" class="st0" width="160" height="35"/>
	<rect x="-76.4" y="315" class="st1" width="160" height="35"/>
	<rect x="-72.4" y="319" class="st0" width="160" height="35"/>
	<rect x="-68.4" y="323" class="st1" width="160" height="35"/>
	<rect x="-64.4" y="327" class="st0" width="160" height="35"/>
	<rect x="-60.4" y="331" class="st1" width="160" height="35"/>
	<rect x="-56.4" y="335" class="st0" width="160" height="35"/>
	<rect x="-52.4" y="339" class="st1" width="160" height="35"/>
	<rect x="-48.4" y="343" class="st0" width="160" height="35"/>
	<rect x="-44.4" y="347" class="st1" width="160" height="35"/>
	<rect x="-40.4" y="351" class="st0" width="160" height="35"/>
	<rect x="-36.4" y="355" class="st1" width="160" height="35"/>
	<rect x="-32.4" y="359" class="st0" width="160" height="35"/>
	<rect x="-28.4" y="363" class="st1" width="160" height="35"/>
	<rect x="-24.4" y="367" class="st0" width="160" height="35"/>
	<rect x="-20.4" y="371" class="st1" width="160" height="35"/>
	<rect x="-16.4" y="375" class="st0" width="160" height="35"/>
	<rect x="-12.4" y="379" class="st1" width="160" height="35"/>
	<rect x="-8.4" y="383" class="st0" width="160" height="35"/>
	<rect x="-4.4" y="387" class="st1" width="160" height="35"/>
	<rect x="-0.4" y="391" class="st0" width="160" height="35"/>
	<rect x="3.6" y="395" class="st1" width="160" height="35"/>
	<rect x="7.6" y="399" class="st0" width="160" height="35"/>
	<rect x="11.6" y="403" class="st1" width="160" height="35"/>
	<rect x="15.6" y="407" class="st0" width="160" height="35"/>
	<rect x="19.6" y="411" class="st1" width="160" height="35"/>
	<rect x="23.6" y="415" class="st0" width="160" height="35"/>
	<rect x="27.6" y="419" class="st1" width="160" height="35"/>
	<rect x="31.6" y="423" class="st0" width="160" height="35"/>
	<rect x="35.6" y="427" class="st1" width="160" height="35"/>
	<rect x="39.6" y="431" class="st0" width="160" height="35"/>
	<rect x="43.6" y="435" class="st1" width="160" height="35"/>
	<rect x="167.6" y="319" class="st0" width="80" height="18"/>
	<rect x="171.6" y="323" class="st1" width="80" height="18"/>
	<rect x="175.6" y="327" class="st0" width="80" height="18"/>
	<rect x="179.6" y="331" class="st1" width="80" height="18"/>
	<rect x="183.6" y="335" class="st0" width="80" height="18"/>
	<rect x="187.6" y="339" class="st1" width="80" height="18"/>
	<rect x="191.6" y="343" class="st0" width="80" height="18"/>
	<rect x="195.6" y="347" class="st1" width="80" height="18"/>
	<rect x="199.6" y="351" class="st0" width="80" height="18"/>
	<rect x="203.6" y="355" class="st1" width="80" height="18"/>
	<rect x="207.6" y="359" class="st0" width="80" height="18"/>
	<rect x="211.6" y="363" class="st1" width="80" height="18"/>
	<rect x="215.6" y="367" class="st0" width="80" height="18"/>
	<rect x="219.6" y="371" class="st1" width="80" height="18"/>
	<rect x="223.6" y="375" class="st0" width="80" height="18"/>
	<rect x="227.6" y="379" class="st1" width="80" height="18"/>
	<rect x="231.6" y="383" class="st0" width="80" height="18"/>
	<rect x="235.6" y="387" class="st1" width="80" height="18"/>
	<rect x="239.6" y="391" class="st0" width="80" height="18"/>
	<rect x="243.6" y="395" class="st1" width="80" height="18"/>
	<rect x="247.6" y="399" class="st0" width="80" height="18"/>
	<rect x="251.6" y="403" class="st1" width="80" height="18"/>
	<rect x="255.6" y="407" class="st0" width="80" height="18"/>
	<rect x="259.6" y="411" class="st1" width="80" height="18"/>
	<rect x="263.6" y="415" class="st0" width="80" height="18"/>
	<rect x="267.6" y="419" class="st1" width="80" height="18"/>
	<rect x="271.6" y="423" class="st0" width="80" height="18"/>
	<rect x="275.6" y="427" class="st1" width="80" height="18"/>
	<rect x="279.6" y="431" class="st0" width="80" height="18"/>
	<rect x="283.6" y="435" class="st1" width="80" height="18"/>
	<rect x="287.6" y="439" class="st0" width="80" height="18"/>
	<rect x="291.6" y="443" class="st1" width="80" height="18"/>
	<rect x="295.6" y="447" class="st0" width="80" height="18"/>
	<rect x="299.6" y="451" class="st1" width="80" height="18"/>
	<rect x="303.6" y="455" class="st0" width="80" height="18"/>
	<rect x="307.6" y="459" class="st1" width="80" height="18"/>
	<rect x="311.6" y="463" class="st0" width="80" height="18"/>
	<rect x="315.6" y="467" class="st1" width="80" height="18"/>
	<rect x="319.6" y="471" class="st0" width="80" height="18"/>
	<rect x="323.6" y="475" class="st1" width="80" height="18"/>
	<rect x="327.6" y="479" class="st0" width="80" height="18"/>
	<rect x="331.6" y="483" class="st1" width="80" height="18"/>
	<rect x="335.6" y="487" class="st0" width="80" height="18"/>
	<rect x="339.6" y="491" class="st1" width="80" height="18"/>
	<rect x="343.6" y="495" class="st0" width="80" height="18"/>
	<rect x="347.6" y="499" class="st1" width="80" height="18"/>
	<rect x="351.6" y="503" class="st0" width="80" height="18"/>
	<rect x="355.6" y="507" class="st1" width="80" height="18"/>
	<rect x="335.6" y="323" class="st0" width="40" height="9"/>
	<rect x="339.6" y="327" class="st1" width="40" height="9"/>
	<rect x="343.6" y="331" class="st0" width="40" height="9"/>
	<rect x="347.6" y="335" class="st1" width="40" height="9"/>
	<rect x="351.6" y="339" class="st0" width="40" height="9"/>
	<rect x="355.6" y="343" class="st1" width="40" height="9"/>
	<rect x="359.6" y="347" class="st0" width="40" height="9"/>
	<rect x="363.6" y="351" class="st1" width="40" height="9"/>
	<rect x="367.6" y="355" class="st0" width="40" height="9"/>
	<rect x="371.6" y="359" class="st1" width="40" height="9"/>
	<rect x="375.6" y="363" class="st0" width="40" height="9"/>
	<rect x="379.6" y="367" class="st1" width="40" height="9"/>
	<rect x="383.6" y="371" class="st0" width="40" height="9"/>
	<rect x="387.6" y="375" class="st1" width="40" height="9"/>
	<rect x="391.6" y="379" class="st0" width="40" height="9"/>
	<rect x="395.6" y="383" class="st1" width="40" height="9"/>
	<rect x="399.6" y="387" class="st0" width="40" height="9"/>
	<rect x="403.6" y="391" class="st1" width="40" height="9"/>
	<rect x="407.6" y="395" class="st0" width="40" height="9"/>
	<rect x="411.6" y="399" class="st1" width="40" height="9"/>
	<rect x="415.6" y="403" class="st0" width="40" height="9"/>
	<rect x="419.6" y="407" class="st1" width="40" height="9"/>
	<rect x="423.6" y="411" class="st0" width="40" height="9"/>
	<rect x="427.6" y="415" class="st1" width="40" height="9"/>
	<rect x="431.6" y="419" class="st0" width="40" height="9"/>
	<rect x="435.6" y="423" class="st1" width="40" height="9"/>
	<rect x="439.6" y="427" class="st0" width="40" height="9"/>
	<rect x="443.6" y="431" class="st1" width="40" height="9"/>
	<rect x="447.6" y="435" class="st0" width="40" height="9"/>
	<rect x="451.6" y="439" class="st1" width="40" height="9"/>
	<rect x="455.6" y="443" class="st0" width="40" height="9"/>
	<rect x="459.6" y="447" class="st1" width="40" height="9"/>
	<rect x="463.6" y="451" class="st0" width="40" height="9"/>
	<rect x="467.6" y="455" class="st1" width="40" height="9"/>
	<rect x="471.6" y="459" class="st0" width="40" height="9"/>
	<rect x="475.6" y="463" class="st1" width="40" height="9"/>
	<rect x="479.6" y="467" class="st0" width="40" height="9"/>
	<rect x="483.6" y="471" class="st1" width="40" height="9"/>
	<rect x="487.6" y="475" class="st0" width="40" height="9"/>
	<rect x="491.6" y="479" class="st1" width="40" height="9"/>
	<rect x="495.6" y="483" class="st0" width="40" height="9"/>
	<rect x="499.6" y="487" class="st1" width="40" height="9"/>
	<rect x="503.6" y="491" class="st0" width="40" height="9"/>
	<rect x="507.6" y="495" class="st1" width="40" height="9"/>
	<rect x="511.6" y="499" class="st0" width="40" height="9"/>
	<rect x="515.6" y="503" class="st1" width="40" height="9"/>
	<rect x="519.6" y="507" class="st0" width="40" height="9"/>
	<rect x="523.6" y="511" class="st1" width="40" height="9"/>
	<rect x="527.6" y="515" class="st0" width="40" height="9"/>
	<rect x="531.6" y="519" class="st1" width="40" height="9"/>
	<rect x="535.6" y="523" class="st0" width="40" height="9"/>
	<rect x="539.6" y="527" class="st1" width="40" height="9"/>
	<rect x="543.6" y="531" class="st0" width="40" height="9"/>
	<rect x="547.6" y="535" class="st1" width="40" height="9"/>
	<rect x="551.6" y="539" class="st0" width="40" height="9"/>
	<rect x="555.6" y="543" class="st1" width="40" height="9"/>
	<rect x="495.6" y="307" class="st0" width="40" height="9"/>
	<rect x="499.6" y="311" class="st1" width="40" height="9"/>
	<rect x="503.6" y="315" class="st0" width="40" height="9"/>
	<rect x="507.6" y="319" class="st1" width="40" height="9"/>
	<rect x="511.6" y="323" class="st0" width="40" height="9"/>
	<rect x="515.6" y="327" class="st1" width="40" height="9"/>
	<rect x="519.6" y="331" class="st0" width="40" height="9"/>
	<rect x="523.6" y="335" class="st1" width="40" height="9"/>
	<rect x="527.6" y="339" class="st0" width="40" height="9"/>
	<rect x="531.6" y="343" class="st1" width="40" height="9"/>
	<rect x="535.6" y="347" class="st0" width="40" height="9"/>
	<rect x="539.6" y="351" class="st1" width="40" height="9"/>
	<rect x="543.6" y="355" class="st0" width="40" height="9"/>
	<rect x="547.6" y="359" class="st1" width="40" height="9"/>
	<rect x="551.6" y="363" class="st0" width="40" height="9"/>
	<rect x="555.6" y="367" class="st1" width="40" height="9"/>
	<rect x="559.6" y="371" class="st0" width="40" height="9"/>
	<rect x="563.6" y="375" class="st1" width="40" height="9"/>
	<rect x="567.6" y="379" class="st0" width="40" height="9"/>
	<rect x="571.6" y="383" class="st1" width="40" height="9"/>
	<rect x="575.6" y="387" class="st0" width="40" height="9"/>
	<rect x="579.6" y="391" class="st1" width="40" height="9"/>
	<rect x="583.6" y="395" class="st0" width="40" height="9"/>
	<rect x="587.6" y="399" class="st1" width="40" height="9"/>
	<rect x="591.6" y="403" class="st0" width="40" height="9"/>
	<rect x="595.6" y="407" class="st1" width="40" height="9"/>
	<rect x="599.6" y="411" class="st0" width="40" height="9"/>
	<rect x="603.6" y="415" class="st1" width="40" height="9"/>
	<rect x="607.6" y="419" class="st0" width="40" height="9"/>
	<rect x="611.6" y="423" class="st1" width="40" height="9"/>
	<rect x="615.6" y="427" class="st0" width="40" height="9"/>
	<rect x="619.6" y="431" class="st1" width="40" height="9"/>
	<rect x="623.6" y="435" class="st0" width="40" height="9"/>
	<rect x="627.6" y="439" class="st1" width="40" height="9"/>
	<rect x="631.6" y="443" class="st0" width="40" height="9"/>
	<rect x="635.6" y="447" class="st1" width="40" height="9"/>
	<rect x="639.6" y="451" class="st0" width="40" height="9"/>
	<rect x="643.6" y="455" class="st1" width="40" height="9"/>
	<rect x="647.6" y="459" class="st0" width="40" height="9"/>
	<rect x="651.6" y="463" class="st1" width="40" height="9"/>
	<rect x="655.6" y="467" class="st0" width="40" height="9"/>
	<rect x="659.6" y="471" class="st1" width="40" height="9"/>
	<rect x="663.6" y="475" class="st0" width="40" height="9"/>
	<rect x="667.6" y="479" class="st1" width="40" height="9"/>
	<rect x="671.6" y="483" class="st0" width="40" height="9"/>
	<rect x="675.6" y="487" class="st1" width="40" height="9"/>
	<rect x="679.6" y="491" class="st0" width="40" height="9"/>
	<rect x="683.6" y="495" class="st1" width="40" height="9"/>
	<rect x="687.6" y="499" class="st0" width="40" height="9"/>
	<rect x="691.6" y="503" class="st1" width="40" height="9"/>
	<rect x="695.6" y="507" class="st0" width="40" height="9"/>
	<rect x="699.6" y="511" class="st1" width="40" height="9"/>
	<rect x="703.6" y="515" class="st0" width="40" height="9"/>
	<rect x="707.6" y="519" class="st1" width="40" height="9"/>
	<rect x="711.6" y="523" class="st0" width="40" height="9"/>
	<rect x="715.6" y="527" class="st1" width="40" height="9"/>
	<rect x="719.6" y="531" class="st0" width="40" height="9"/>
	<rect x="723.6" y="535" class="st1" width="40" height="9"/>
	<rect x="727.6" y="539" class="st0" width="40" height="9"/>
	<rect x="731.6" y="543" class="st1" width="40" height="9"/>
	<rect x="735.6" y="547" class="st0" width="40" height="9"/>
	<rect x="739.6" y="551" class="st1" width="40" height="9"/>
	<rect x="743.6" y="555" class="st0" width="40" height="9"/>
	<rect x="747.6" y="559" class="st1" width="40" height="9"/>
	<rect x="687.6" y="307" class="st0" width="40" height="9"/>
	<rect x="691.6" y="311" class="st1" width="40" height="9"/>
	<rect x="695.6" y="315" class="st0" width="40" height="9"/>
	<rect x="699.6" y="319" class="st1" width="40" height="9"/>
	<rect x="703.6" y="323" class="st0" width="40" height="9"/>
	<rect x="707.6" y="327" class="st1" width="40" height="9"/>
	<rect x="711.6" y="331" class="st0" width="40" height="9"/>
	<rect x="715.6" y="335" class="st1" width="40" height="9"/>
	<rect x="719.6" y="339" class="st0" width="40" height="9"/>
	<rect x="723.6" y="343" class="st1" width="40" height="9"/>
	<rect x="727.6" y="347" class="st0" width="40" height="9"/>
	<rect x="731.6" y="351" class="st1" width="40" height="9"/>
	<rect x="735.6" y="355" class="st0" width="40" height="9"/>
	<rect x="739.6" y="359" class="st1" width="40" height="9"/>
	<rect x="743.6" y="363" class="st0" width="40" height="9"/>
	<rect x="747.6" y="367" class="st1" width="40" height="9"/>
	<rect x="751.6" y="371" class="st0" width="40" height="9"/>
	<rect x="755.6" y="375" class="st1" width="40" height="9"/>
	<rect x="759.6" y="379" class="st0" width="40" height="9"/>
	<rect x="763.6" y="383" class="st1" width="40" height="9"/>
	<rect x="767.6" y="387" class="st0" width="40" height="9"/>
	<rect x="771.6" y="391" class="st1" width="40" height="9"/>
	<rect x="775.6" y="395" class="st0" width="40" height="9"/>
	<rect x="779.6" y="399" class="st1" width="40" height="9"/>
	<rect x="783.6" y="403" class="st0" width="40" height="9"/>
	<rect x="787.6" y="407" class="st1" width="40" height="9"/>
	<rect x="791.6" y="411" class="st0" width="40" height="9"/>
	<rect x="795.6" y="415" class="st1" width="40" height="9"/>
	<rect x="799.6" y="419" class="st0" width="40" height="9"/>
	<rect x="803.6" y="423" class="st1" width="40" height="9"/>
	<rect x="807.6" y="427" class="st0" width="40" height="9"/>
	<rect x="811.6" y="431" class="st1" width="40" height="9"/>
	<rect x="815.6" y="435" class="st0" width="40" height="9"/>
	<rect x="819.6" y="439" class="st1" width="40" height="9"/>
	<rect x="823.6" y="443" class="st0" width="40" height="9"/>
	<rect x="827.6" y="447" class="st1" width="40" height="9"/>
	<rect x="831.6" y="451" class="st0" width="40" height="9"/>
	<rect x="835.6" y="455" class="st1" width="40" height="9"/>
	<rect x="839.6" y="459" class="st0" width="40" height="9"/>
	<rect x="843.6" y="463" class="st1" width="40" height="9"/>
	<rect x="847.6" y="467" class="st0" width="40" height="9"/>
	<rect x="851.6" y="471" class="st1" width="40" height="9"/>
	<rect x="855.6" y="475" class="st0" width="40" height="9"/>
	<rect x="859.6" y="479" class="st1" width="40" height="9"/>
	<rect x="863.6" y="483" class="st0" width="40" height="9"/>
	<rect x="867.6" y="487" class="st1" width="40" height="9"/>
	<rect x="871.6" y="491" class="st0" width="40" height="9"/>
	<rect x="875.6" y="495" class="st1" width="40" height="9"/>
	<rect x="879.6" y="499" class="st0" width="40" height="9"/>
	<rect x="883.6" y="503" class="st1" width="40" height="9"/>
	<rect x="887.6" y="507" class="st0" width="40" height="9"/>
	<rect x="891.6" y="511" class="st1" width="40" height="9"/>
	<rect x="895.6" y="515" class="st0" width="40" height="9"/>
	<rect x="899.6" y="519" class="st1" width="40" height="9"/>
	<rect x="903.6" y="523" class="st0" width="40" height="9"/>
	<rect x="907.6" y="527" class="st1" width="40" height="9"/>
	<rect x="911.6" y="531" class="st0" width="40" height="9"/>
	<rect x="915.6" y="535" class="st1" width="40" height="9"/>
	<rect x="919.6" y="539" class="st0" width="40" height="9"/>
	<rect x="923.6" y="543" class="st1" width="40" height="9"/>
	<rect x="927.6" y="547" class="st0" width="40" height="9"/>
	<rect x="931.6" y="551" class="st1" width="40" height="9"/>
	<rect x="935.6" y="555" class="st0" width="40" height="9"/>
	<rect x="939.6" y="559" class="st1" width="40" height="9"/>
	<rect id="conv_0" x="-770.2" y="352.1" class="st2" width="100" height="70"/>
	<rect id="conv_1" x="-340.3" y="353.1" class="st2" width="5" height="5"/>
	<rect id="conv_2" x="75.7" y="447.7" class="st2" width="5" height="5"/>
	<rect id="conv_3" x="394.1" y="518.3" class="st2" width="5" height="5"/>
	<rect id="conv_4" x="575" y="543.5" class="st2" width="5" height="5"/>
	<rect id="conv_5" x="777" y="560.7" class="st2" width="3" height="3"/>
	<line class="st3" x1="-670.2" y1="422.1" x2="-395.4" y2="339.8"/>
	<line class="st3" x1="-670.2" y1="352.1" x2="-395.4" y2="339.8"/>
	<line class="st3" x1="-335.3" y1="358.1" x2="108.7" y2="465.2"/>
	<line class="st3" x1="-335.3" y1="353.1" x2="108.7" y2="465.2"/>
	<line class="st3" x1="80.7" y1="452.7" x2="372.2" y2="514.6"/>
	<line class="st3" x1="80.7" y1="447.7" x2="372.2" y2="514.6"/>
	<line class="st3" x1="399.1" y1="523.3" x2="576.2" y2="550.8"/>
	<line class="st3" x1="399.1" y1="518.3" x2="576.2" y2="550.8"/>
	<line class="st3" x1="580" y1="548.5" x2="769.8" y2="560.2"/>
	<line class="st3" x1="580" y1="543.5" x2="769.8" y2="560.2"/>
	<line class="st3" x1="780" y1="563.7" x2="971.4" y2="561.5"/>
	<line class="st3" x1="780" y1="560.7" x2="971.4" y2="561.5"/>
	<polygon id="fc_0" class="st1" points="879.6,382.3 889.6,382.3 1031.1,523.7 1021.1,523.7 	"/>
	<polygon id="fc_1" class="st1" points="1033.1,417.6 1043.1,417.6 1113.8,488.4 1103.8,488.4 	"/>
	<polygon id="fc_2" class="st1" points="1115.8,435.3 1125.8,435.3 1161.1,470.7 1151.1,470.7 	"/>
	<polygon id="fc_3" class="st1" points="1163.1,449.5 1173.1,449.5 1180.2,456.5 1170.2,456.5 	"/>
	<polygon id="fc_4" class="st1" points="1182.2,452.6 1192.2,452.6 1192.9,453.4 1182.9,453.4 	"/>
	<line class="st3" x1="979.6" y1="599" x2="1021.1" y2="523.7"/>
	<line class="st3" x1="727.6" y1="307" x2="879.6" y2="382.3"/>
	<line class="st3" x1="1031.1" y1="523.7" x2="1103.8" y2="488.4"/>
	<line class="st3" x1="889.6" y1="382.3" x2="1033.1" y2="417.6"/>
	<line class="st3" x1="1113.8" y1="488.4" x2="1151.1" y2="470.7"/>
	<line class="st3" x1="1043.1" y1="417.6" x2="1115.8" y2="435.3"/>
	<line class="st3" x1="1161.1" y1="470.7" x2="1170.2" y2="456.5"/>
	<line class="st3" x1="1125.8" y1="435.3" x2="1163.1" y2="449.5"/>
	<line class="st3" x1="1180.2" y1="456.5" x2="1182.9" y2="453.4"/>
	<line class="st3" x1="1173.1" y1="449.5" x2="1182.2" y2="452.6"/>
	<text transform="matrix(0.9202 0 0 0.9202 -421.3565 622.6007)" class="st4 st5">Input Image</text>
	<text transform="matrix(0.9202 0 0 0.9202 -58.3569 622.6007)" class="st4 st5">Cropping Layer</text>
	<text transform="matrix(0.9202 0 0 0.9202 237.6433 622.6007)" class="st4 st5">Convolution</text>
	<text transform="matrix(0.9202 0 0 0.9202 435.6436 622.6007)" class="st4 st5">Convolution</text>
	<text transform="matrix(0.9202 0 0 0.9202 603.6434 622.6007)" class="st4 st5">Convolution</text>
	<text transform="matrix(0.9202 0 0 0.9202 795.6427 622.6007)" class="st4 st5">Convolution</text>
	<text transform="matrix(0.9202 0 0 0.9202 949.9988 622.6007)" class="st4 st5">Convolution</text>
	<text transform="matrix(0.9202 0 0 0.9202 -828.3571 269.2011)" class="st4 st5">3@160x320</text>
	<text transform="matrix(0.9202 0 0 0.9202 -476.3566 269.2011)" class="st4 st5">3@70x320</text>
	<text transform="matrix(0.9202 0 0 0.9202 -80.357 291.2011)" class="st4 st5">32@35x160</text>
	<text transform="matrix(0.9202 0 0 0.9202 167.6435 299.2015)" class="st4 st5">48@18x80</text>
	<text transform="matrix(0.9202 0 0 0.9202 335.6433 303.2013)" class="st4 st5">56@9x40</text>
	<text transform="matrix(0.9202 0 0 0.9202 495.6427 287.2014)" class="st4 st5">64@9x40</text>
	<text transform="matrix(0.9202 0 0 0.9202 687.6429 287.2014)" class="st4 st5">64@9x40</text>
	<text transform="matrix(0.9202 0 0 0.9202 879.6431 362.4905)" class="st4 st5">1x23040</text>
	<text transform="matrix(0.9202 0 0 0.9202 1033.0646 397.8458)" class="st4 st5">1x100</text>
	<text transform="matrix(0.9202 0 0 0.9202 1115.7754 415.5235)" class="st4 st5">1x50</text>
	<text transform="matrix(0.9202 0 0 0.9202 1163.1309 429.666)" class="st4 st5">1x10</text>
	<text transform="matrix(0.9202 0 0 0.9202 1182.2014 432.848)" class="st4 st5">1x1</text>
</g>
</svg>
